# ProBuilder 4.4.0
# https://unity3d.com/unity/features/worldbuilding/probuilder
# 15.10.2020 16:06:56

mtllib ./Torus.mtl
o Torus

g Torus
v 0 0 0
v 0.05000001 0.05 0
v 0.1 -4.371139E-09 0
v 0.05000001 -0.05 0
v 0.01921475 0 -0.1950903
v 0.06825399 0.05 -0.1853358
v 0.1172933 -4.371139E-09 -0.1755813
v 0.06825399 -0.05 -0.1853358
v 0.0761205 0 -0.3826834
v 0.1223145 0.05 -0.3635493
v 0.1685085 -4.371139E-09 -0.3444151
v 0.1223145 -0.05 -0.3635493
v 0.1685303 0 -0.5555702
v 0.2101039 0.05 -0.5277917
v 0.2516773 -4.371139E-09 -0.5000132
v 0.2101039 -0.05 -0.5277917
v 0.2928933 0 -0.7071068
v 0.3282486 0.05 -0.6717515
v 0.3636039 -4.371139E-09 -0.6363961
v 0.3282486 -0.05 -0.6717515
v 0.4444298 0 -0.8314696
v 0.4722083 0.05 -0.7898961
v 0.4999868 -4.371139E-09 -0.7483226
v 0.4722083 -0.05 -0.7898961
v 0.6173166 0 -0.9238795
v 0.6364508 0.05 -0.8776855
v 0.6555849 -4.371139E-09 -0.8314915
v 0.6364508 -0.05 -0.8776855
v 0.8049096 0 -0.9807853
v 0.8146642 0.05 -0.931746
v 0.8244187 -4.371139E-09 -0.8827068
v 0.8146642 -0.05 -0.931746
v 0.9999999 0 -0.9999999
v 0.9999999 0.05 -0.9499999
v 0.9999999 -4.371139E-09 -0.8999999
v 0.9999999 -0.05 -0.9499999
v 1.19509 0 -0.9807853
v 1.185336 0.05 -0.931746
v 1.175581 -4.371139E-09 -0.8827067
v 1.185336 -0.05 -0.931746
v 1.382683 0 -0.9238795
v 1.363549 0.05 -0.8776855
v 1.344415 -4.371139E-09 -0.8314915
v 1.363549 -0.05 -0.8776855
v 1.55557 0 -0.8314697
v 1.527792 0.05 -0.7898962
v 1.500013 -4.371139E-09 -0.7483227
v 1.527792 -0.05 -0.7898962
v 1.707107 0 -0.7071068
v 1.671751 0.05 -0.6717514
v 1.636396 -4.371139E-09 -0.6363961
v 1.671751 -0.05 -0.6717514
v 1.83147 0 -0.5555702
v 1.789896 0.05 -0.5277917
v 1.748323 -4.371139E-09 -0.5000132
v 1.789896 -0.05 -0.5277917
v 1.923879 0 -0.3826835
v 1.877685 0.05 -0.3635493
v 1.831491 -4.371139E-09 -0.3444151
v 1.877685 -0.05 -0.3635493
v 1.980785 0 -0.1950903
v 1.931746 0.05 -0.1853358
v 1.882707 -4.371139E-09 -0.1755813
v 1.931746 -0.05 -0.1853358
v 2 0 8.742278E-08
v 1.95 0.05 8.305164E-08
v 1.9 -4.371139E-09 7.86805E-08
v 1.95 -0.05 8.305164E-08
v 1.980785 0 0.1950902
v 1.931746 0.05 0.1853357
v 1.882707 -4.371139E-09 0.1755812
v 1.931746 -0.05 0.1853357
v 1.923879 0 0.3826834
v 1.877685 0.05 0.3635493
v 1.831491 -4.371139E-09 0.3444151
v 1.877685 -0.05 0.3635493
v 1.831469 0 0.5555703
v 1.789896 0.05 0.5277918
v 1.748322 -4.371139E-09 0.5000132
v 1.789896 -0.05 0.5277918
v 1.707107 0 0.7071067
v 1.671752 0.05 0.6717514
v 1.636396 -4.371139E-09 0.6363961
v 1.671752 -0.05 0.6717514
v 1.55557 0 0.8314694
v 1.527792 0.05 0.789896
v 1.500013 -4.371139E-09 0.7483224
v 1.527792 -0.05 0.789896
v 1.382684 0 0.9238795
v 1.363549 0.05 0.8776855
v 1.344415 -4.371139E-09 0.8314915
v 1.363549 -0.05 0.8776855
v 1.19509 0 0.9807853
v 1.185336 0.05 0.931746
v 1.175581 -4.371139E-09 0.8827068
v 1.185336 -0.05 0.931746
v 0.9999999 0 0.9999999
v 0.9999999 0.05 0.9499999
v 0.9999999 -4.371139E-09 0.8999999
v 0.9999999 -0.05 0.9499999
v 0.8049096 0 0.9807853
v 0.8146642 0.05 0.931746
v 0.8244187 -4.371139E-09 0.8827068
v 0.8146642 -0.05 0.931746
v 0.6173165 0 0.9238795
v 0.6364506 0.05 0.8776855
v 0.6555848 -4.371139E-09 0.8314915
v 0.6364506 -0.05 0.8776855
v 0.44443 0 0.8314698
v 0.4722085 0.05 0.7898962
v 0.499987 -4.371139E-09 0.7483228
v 0.4722085 -0.05 0.7898962
v 0.2928933 0 0.7071068
v 0.3282486 0.05 0.6717515
v 0.3636039 -4.371139E-09 0.6363961
v 0.3282486 -0.05 0.6717515
v 0.1685305 0 0.5555703
v 0.2101039 0.05 0.5277918
v 0.2516774 -4.371139E-09 0.5000132
v 0.2101039 -0.05 0.5277918
v 0.07612044 0 0.3826834
v 0.1223145 0.05 0.3635493
v 0.1685084 -4.371139E-09 0.3444151
v 0.1223145 -0.05 0.3635493
v 0.01921469 0 0.1950902
v 0.06825399 0.05 0.1853357
v 0.1172932 -4.371139E-09 0.1755812
v 0.06825399 -0.05 0.1853357

vt 0 0
vt -0.05000001 0
vt -0.1 0
vt 0.1 0
vt 0.05000001 0
vt -0.01921475 -0.1950903
vt -0.06825399 -0.1853358
vt -0.1172933 -0.1755813
vt 0.1172933 -0.1755813
vt 0.06825399 -0.1853358
vt 0.01921475 -0.1950903
vt -0.0761205 -0.3826834
vt -0.1223145 -0.3635493
vt -0.1685085 -0.3444151
vt 0.1685085 -0.3444151
vt 0.1223145 -0.3635493
vt 0.0761205 -0.3826834
vt -0.1685303 -0.5555702
vt -0.2101039 -0.5277917
vt -0.2516773 -0.5000132
vt 0.2516773 -0.5000132
vt 0.2101039 -0.5277917
vt 0.1685303 -0.5555702
vt -0.2928933 -0.7071068
vt -0.3282486 -0.6717515
vt -0.3636039 -0.6363961
vt 0.3636039 -0.6363961
vt 0.3282486 -0.6717515
vt 0.2928933 -0.7071068
vt -0.4444298 -0.8314696
vt -0.4722083 -0.7898961
vt -0.4999868 -0.7483226
vt 0.4999868 -0.7483226
vt 0.4722083 -0.7898961
vt 0.4444298 -0.8314696
vt -0.6173166 -0.9238795
vt -0.6364508 -0.8776855
vt -0.6555849 -0.8314915
vt 0.6555849 -0.8314915
vt 0.6364508 -0.8776855
vt 0.6173166 -0.9238795
vt -0.8049096 -0.9807853
vt -0.8146642 -0.931746
vt -0.8244187 -0.8827068
vt 0.8244187 -0.8827068
vt 0.8146642 -0.931746
vt 0.8049096 -0.9807853
vt -0.8049096 0
vt -0.8146642 0.05
vt 0.8146642 0.05
vt 0.8244187 -4.371139E-09
vt 0.8146642 -0.05
vt -0.8146642 -0.05
vt -0.9999999 0
vt -0.9999999 0.05
vt 0.9999999 0.05
vt 0.9999999 -4.371139E-09
vt 0.9999999 -0.05
vt -0.9999999 -0.05
vt -1.19509 0
vt -1.185336 0.05
vt 1.185336 0.05
vt 1.175581 -4.371139E-09
vt 1.185336 -0.05
vt -1.185336 -0.05
vt -1.19509 -0.9807853
vt -1.185336 -0.931746
vt -1.175581 -0.8827067
vt 1.175581 -0.8827067
vt 1.185336 -0.931746
vt 1.19509 -0.9807853
vt -1.382683 -0.9238795
vt -1.363549 -0.8776855
vt -1.344415 -0.8314915
vt 1.344415 -0.8314915
vt 1.363549 -0.8776855
vt 1.382683 -0.9238795
vt -1.55557 -0.8314697
vt -1.527792 -0.7898962
vt -1.500013 -0.7483227
vt 1.500013 -0.7483227
vt 1.527792 -0.7898962
vt 1.55557 -0.8314697
vt -1.707107 -0.7071068
vt -1.671751 -0.6717514
vt -1.636396 -0.6363961
vt 1.636396 -0.6363961
vt 1.671751 -0.6717514
vt 1.707107 -0.7071068
vt -1.83147 -0.5555702
vt -1.789896 -0.5277917
vt -1.748323 -0.5000132
vt 1.748323 -0.5000132
vt 1.789896 -0.5277917
vt 1.83147 -0.5555702
vt -1.923879 -0.3826835
vt -1.877685 -0.3635493
vt -1.831491 -0.3444151
vt 1.831491 -0.3444151
vt 1.877685 -0.3635493
vt 1.923879 -0.3826835
vt -1.980785 -0.1950903
vt -1.931746 -0.1853358
vt -1.882707 -0.1755813
vt 1.882707 -0.1755813
vt 1.931746 -0.1853358
vt 1.980785 -0.1950903
vt -2 8.742278E-08
vt -1.95 8.305164E-08
vt -1.9 7.86805E-08
vt 1.9 7.86805E-08
vt 1.95 8.305164E-08
vt 2 8.742278E-08
vt -1.980785 0.1950902
vt -1.931746 0.1853357
vt -1.882707 0.1755812
vt 1.882707 0.1755812
vt 1.931746 0.1853357
vt 1.980785 0.1950902
vt -1.923879 0.3826834
vt -1.877685 0.3635493
vt -1.831491 0.3444151
vt 1.831491 0.3444151
vt 1.877685 0.3635493
vt 1.923879 0.3826834
vt -1.831469 0.5555703
vt -1.789896 0.5277918
vt -1.748322 0.5000132
vt 1.748322 0.5000132
vt 1.789896 0.5277918
vt 1.831469 0.5555703
vt -1.707107 0.7071067
vt -1.671752 0.6717514
vt -1.636396 0.6363961
vt 1.636396 0.6363961
vt 1.671752 0.6717514
vt 1.707107 0.7071067
vt -1.55557 0.8314694
vt -1.527792 0.789896
vt -1.500013 0.7483224
vt 1.500013 0.7483224
vt 1.527792 0.789896
vt 1.55557 0.8314694
vt -1.382684 0.9238795
vt -1.363549 0.8776855
vt -1.344415 0.8314915
vt 1.344415 0.8314915
vt 1.363549 0.8776855
vt 1.382684 0.9238795
vt -1.19509 0.9807853
vt -1.185336 0.931746
vt -1.175581 0.8827068
vt 1.175581 0.8827068
vt 1.185336 0.931746
vt 1.19509 0.9807853
vt 1.19509 0
vt -1.175581 -4.371139E-09
vt 0.8049096 0
vt -0.8244187 -4.371139E-09
vt -0.8049096 0.9807853
vt -0.8146642 0.931746
vt -0.8244187 0.8827068
vt 0.8244187 0.8827068
vt 0.8146642 0.931746
vt 0.8049096 0.9807853
vt -0.6173165 0.9238795
vt -0.6364506 0.8776855
vt -0.6555848 0.8314915
vt 0.6555848 0.8314915
vt 0.6364506 0.8776855
vt 0.6173165 0.9238795
vt -0.44443 0.8314698
vt -0.4722085 0.7898962
vt -0.499987 0.7483228
vt 0.499987 0.7483228
vt 0.4722085 0.7898962
vt 0.44443 0.8314698
vt -0.2928933 0.7071068
vt -0.3282486 0.6717515
vt -0.3636039 0.6363961
vt 0.3636039 0.6363961
vt 0.3282486 0.6717515
vt 0.2928933 0.7071068
vt -0.1685305 0.5555703
vt -0.2101039 0.5277918
vt -0.2516774 0.5000132
vt 0.2516774 0.5000132
vt 0.2101039 0.5277918
vt 0.1685305 0.5555703
vt -0.07612044 0.3826834
vt -0.1223145 0.3635493
vt -0.1685084 0.3444151
vt 0.1685084 0.3444151
vt 0.1223145 0.3635493
vt 0.07612044 0.3826834
vt -0.01921469 0.1950902
vt -0.06825399 0.1853357
vt -0.1172932 0.1755812
vt 0.1172932 0.1755812
vt 0.06825399 0.1853357
vt 0.01921469 0.1950902

vn -1 8.449788E-08 -1.478713E-07
vn 2.112447E-08 1 -2.640559E-09
vn 1 2.112447E-08 1.399496E-07
vn -4.224893E-08 -1 -5.281116E-09
vn -0.9807853 8.449785E-08 -0.1950904
vn 0.9807853 2.112447E-08 0.1950904
vn -0.9238796 -2.112447E-08 -0.3826833
vn 0.9238796 -1.056224E-07 0.3826833
vn -0.8314697 0 -0.5555702
vn 0.8314696 -6.33734E-08 0.5555702
vn -0.7071066 6.33734E-08 -0.7071069
vn 0.7071067 2.112447E-08 0.7071068
vn -0.5555701 4.224892E-08 -0.8314697
vn 0.5555702 -4.224895E-08 0.8314696
vn -0.3826835 -4.224893E-08 -0.9238795
vn 0.3826835 -1.267468E-07 0.9238795
vn -0.1950902 -2.112447E-08 -0.9807853
vn 0.1950903 -8.449786E-08 0.9807853
vn 1.056224E-07 1.056224E-07 -1
vn -1.214657E-07 2.112447E-08 1
vn 0.1950902 8.449786E-08 -0.9807853
vn -0.1950902 -2.112448E-08 0.9807854
vn 0.3826833 6.337339E-08 -0.9238796
vn -0.3826833 -4.224895E-08 0.9238796
vn 0.5555702 6.33734E-08 -0.8314696
vn -0.5555702 -4.224895E-08 0.8314696
vn 0.7071067 1.056223E-07 -0.7071069
vn -0.7071066 -2.112447E-08 0.7071069
vn 0.8314697 0 -0.5555701
vn -0.8314697 -8.44979E-08 0.5555701
vn 0.9238796 -4.224893E-08 -0.3826833
vn -0.9238797 6.33734E-08 0.3826831
vn 0.9807852 1.056223E-07 -0.1950906
vn -0.9807853 6.337346E-08 0.1950906

usemtl Default-Material
f 2/2/2 6/7/2 5/6/5 1/1/1
f 3/3/3 7/8/6 6/7/2 2/2/2
f 4/5/4 8/10/4 7/9/6 3/4/3
f 1/1/1 5/11/5 8/10/4 4/5/4
f 6/7/2 10/13/2 9/12/7 5/6/5
f 7/8/6 11/14/8 10/13/2 6/7/2
f 8/10/4 12/16/4 11/15/8 7/9/6
f 5/11/5 9/17/7 12/16/4 8/10/4
f 10/13/2 14/19/2 13/18/9 9/12/7
f 11/14/8 15/20/10 14/19/2 10/13/2
f 12/16/4 16/22/4 15/21/10 11/15/8
f 9/17/7 13/23/9 16/22/4 12/16/4
f 14/19/2 18/25/2 17/24/11 13/18/9
f 15/20/10 19/26/12 18/25/2 14/19/2
f 16/22/4 20/28/4 19/27/12 15/21/10
f 13/23/9 17/29/11 20/28/4 16/22/4
f 18/25/2 22/31/2 21/30/13 17/24/11
f 19/26/12 23/32/14 22/31/2 18/25/2
f 20/28/4 24/34/4 23/33/14 19/27/12
f 17/29/11 21/35/13 24/34/4 20/28/4
f 22/31/2 26/37/2 25/36/15 21/30/13
f 23/32/14 27/38/16 26/37/2 22/31/2
f 24/34/4 28/40/4 27/39/16 23/33/14
f 21/35/13 25/41/15 28/40/4 24/34/4
f 26/37/2 30/43/2 29/42/17 25/36/15
f 27/38/16 31/44/18 30/43/2 26/37/2
f 28/40/4 32/46/4 31/45/18 27/39/16
f 25/41/15 29/47/17 32/46/4 28/40/4
f 30/49/2 34/55/2 33/54/19 29/48/17
f 31/51/18 35/57/20 34/56/2 30/50/2
f 32/52/4 36/58/4 35/57/20 31/51/18
f 29/48/17 33/54/19 36/59/4 32/53/4
f 34/55/2 38/61/2 37/60/21 33/54/19
f 35/57/20 39/63/22 38/62/2 34/56/2
f 36/58/4 40/64/4 39/63/22 35/57/20
f 33/54/19 37/60/21 40/65/4 36/59/4
f 38/67/2 42/73/2 41/72/23 37/66/21
f 39/68/22 43/74/24 42/73/2 38/67/2
f 40/70/4 44/76/4 43/75/24 39/69/22
f 37/71/21 41/77/23 44/76/4 40/70/4
f 42/73/2 46/79/2 45/78/25 41/72/23
f 43/74/24 47/80/26 46/79/2 42/73/2
f 44/76/4 48/82/4 47/81/26 43/75/24
f 41/77/23 45/83/25 48/82/4 44/76/4
f 46/79/2 50/85/2 49/84/27 45/78/25
f 47/80/26 51/86/28 50/85/2 46/79/2
f 48/82/4 52/88/4 51/87/28 47/81/26
f 45/83/25 49/89/27 52/88/4 48/82/4
f 50/85/2 54/91/2 53/90/29 49/84/27
f 51/86/28 55/92/30 54/91/2 50/85/2
f 52/88/4 56/94/4 55/93/30 51/87/28
f 49/89/27 53/95/29 56/94/4 52/88/4
f 54/91/2 58/97/2 57/96/31 53/90/29
f 55/92/30 59/98/32 58/97/2 54/91/2
f 56/94/4 60/100/4 59/99/32 55/93/30
f 53/95/29 57/101/31 60/100/4 56/94/4
f 58/97/2 62/103/2 61/102/33 57/96/31
f 59/98/32 63/104/34 62/103/2 58/97/2
f 60/100/4 64/106/4 63/105/34 59/99/32
f 57/101/31 61/107/33 64/106/4 60/100/4
f 62/103/2 66/109/2 65/108/3 61/102/33
f 63/104/34 67/110/1 66/109/2 62/103/2
f 64/106/4 68/112/4 67/111/1 63/105/34
f 61/107/33 65/113/3 68/112/4 64/106/4
f 66/109/2 70/115/2 69/114/6 65/108/3
f 67/110/1 71/116/5 70/115/2 66/109/2
f 68/112/4 72/118/4 71/117/5 67/111/1
f 65/113/3 69/119/6 72/118/4 68/112/4
f 70/115/2 74/121/2 73/120/8 69/114/6
f 71/116/5 75/122/7 74/121/2 70/115/2
f 72/118/4 76/124/4 75/123/7 71/117/5
f 69/119/6 73/125/8 76/124/4 72/118/4
f 74/121/2 78/127/2 77/126/10 73/120/8
f 75/122/7 79/128/9 78/127/2 74/121/2
f 76/124/4 80/130/4 79/129/9 75/123/7
f 73/125/8 77/131/10 80/130/4 76/124/4
f 78/127/2 82/133/2 81/132/12 77/126/10
f 79/128/9 83/134/11 82/133/2 78/127/2
f 80/130/4 84/136/4 83/135/11 79/129/9
f 77/131/10 81/137/12 84/136/4 80/130/4
f 82/133/2 86/139/2 85/138/14 81/132/12
f 83/134/11 87/140/13 86/139/2 82/133/2
f 84/136/4 88/142/4 87/141/13 83/135/11
f 81/137/12 85/143/14 88/142/4 84/136/4
f 86/139/2 90/145/2 89/144/16 85/138/14
f 87/140/13 91/146/15 90/145/2 86/139/2
f 88/142/4 92/148/4 91/147/15 87/141/13
f 85/143/14 89/149/16 92/148/4 88/142/4
f 90/145/2 94/151/2 93/150/18 89/144/16
f 91/146/15 95/152/17 94/151/2 90/145/2
f 92/148/4 96/154/4 95/153/17 91/147/15
f 89/149/16 93/155/18 96/154/4 92/148/4
f 94/62/2 98/56/2 97/57/20 93/156/18
f 95/157/17 99/54/19 98/55/2 94/61/2
f 96/65/4 100/59/4 99/54/19 95/157/17
f 93/156/18 97/57/20 100/58/4 96/64/4
f 98/56/2 102/50/2 101/158/22 97/57/20
f 99/54/19 103/159/21 102/49/2 98/55/2
f 100/59/4 104/53/4 103/159/21 99/54/19
f 97/57/20 101/158/22 104/52/4 100/58/4
f 102/161/2 106/167/2 105/166/24 101/160/22
f 103/162/21 107/168/23 106/167/2 102/161/2
f 104/164/4 108/170/4 107/169/23 103/163/21
f 101/165/22 105/171/24 108/170/4 104/164/4
f 106/167/2 110/173/2 109/172/26 105/166/24
f 107/168/23 111/174/25 110/173/2 106/167/2
f 108/170/4 112/176/4 111/175/25 107/169/23
f 105/171/24 109/177/26 112/176/4 108/170/4
f 110/173/2 114/179/2 113/178/28 109/172/26
f 111/174/25 115/180/27 114/179/2 110/173/2
f 112/176/4 116/182/4 115/181/27 111/175/25
f 109/177/26 113/183/28 116/182/4 112/176/4
f 114/179/2 118/185/2 117/184/30 113/178/28
f 115/180/27 119/186/29 118/185/2 114/179/2
f 116/182/4 120/188/4 119/187/29 115/181/27
f 113/183/28 117/189/30 120/188/4 116/182/4
f 118/185/2 122/191/2 121/190/32 117/184/30
f 119/186/29 123/192/31 122/191/2 118/185/2
f 120/188/4 124/194/4 123/193/31 119/187/29
f 117/189/30 121/195/32 124/194/4 120/188/4
f 122/191/2 126/197/2 125/196/34 121/190/32
f 123/192/31 127/198/33 126/197/2 122/191/2
f 124/194/4 128/200/4 127/199/33 123/193/31
f 121/195/32 125/201/34 128/200/4 124/194/4
f 126/197/2 2/2/2 1/1/1 125/196/34
f 127/198/33 3/3/3 2/2/2 126/197/2
f 128/200/4 4/5/4 3/4/3 127/199/33
f 125/201/34 1/1/1 4/5/4 128/200/4

